<?xml version="1.0" encoding="UTF-8"?>
<svg id="Camada_1" xmlns="http://www.w3.org/2000/svg" version="1.1" viewBox="0 0 882.7 923.9">
  <!-- Generator: Adobe Illustrator 29.1.0, SVG Export Plug-In . SVG Version: 2.1.0 Build 142)  -->
  <defs>
    <style>
      .st0 {
        fill: #fdb817;
      }
    </style>
  </defs>
  <path class="st0" d="M464,184.8c48.5-44.4,94.7-97.4,141.2-144.1h0c15-15,4.4-40.6-16.8-40.6h-15.2c-6.4,0-12.5,2.5-16.9,7.1l-138,139.6c-2.4,2.4-4.3,5.2-5.4,8.4-9.6,27.6,25.3,53.3,51.1,29.7h0Z"/>
  <path class="st0" d="M311.4,627.3c21.4-14.9,13.3-33.5.7-50.2-53.7-71.2-69.7-143.4-14.8-222,12.7-18.1,33.2-28.9,25.5-53.6-.9-2.9-18.3-23.5-21.8-27.1-32.1-33.6-80.7-87.6-115.6-115.4-28.2-22.6-44.5-3.9-63.9,17.6-24.2,26.8-47.7,64.6-63,97.3C-14.1,429,10.6,604.9,119.8,735.1l-110.8,111.5c-24.5,27.7,5.7,66.7,37.8,46,38-45.5,99.5-88.5,134.7-134.3,27.9-36.3-15.8-58.3-35.2-84.5-92.9-125-92.3-306.6,0-431.7,4.1-5.5,15.7-23.6,21.6-16.6l85.7,85.9c-48.4,71.3-64.4,155.6-30.5,236.7,11.3,27,52.2,104.4,88.4,79.3h0Z"/>
  <path class="st0" d="M874.3,65.3c22.3-25.9-3.7-60.3-35.6-46.5l-138.4,136c-25.9,33.7,4,45.6,21.6,68.2,109.9,141.7,113.3,330.7-2.5,469.8l-90.3-90.9c49.7-70.5,62.6-156.1,29.7-237-10.4-25.5-64.1-118.1-95.2-69.7-18.8,29.2,18.2,51,31.8,76,29.8,54.5,29.5,118.5-.2,173.1-9.1,16.7-35.5,39.8-37.5,55.1-.6,4.6,0,7.7,1.2,12,4.7,17.5,79,81.9,96.6,99,13.3,12.9,29.8,34.6,43.3,46.4,25,21.8,44.7-2,61.3-20.5,136.8-151.2,136.9-383.3,13.3-541.9-3.4-4.4-6.4-9-10.8-12.5v-5.4l111.6-111.3h0Z"/>
  <path class="st0" d="M530.5,381.9c-24-28.2-58.1-43.2-95.5-41.5-101.3,4.6-150.3,129.9-77,200.4,108.1,104,269.2-45.3,172.5-159h0Z"/>
  <path class="st0" d="M409.6,736.3c-15.6,14.6-32,35-47.4,50.4-28.8,28.8-58,57.3-86.7,86.3-18.6,18.8-5.3,50.8,21.2,50.8h0c7.9,0,15.5-3.2,21.1-8.8l142.3-142.9c3.5-3.5,6.2-7.8,7.5-12.5,10.4-38.5-26.1-53.4-58-23.4h0Z"/>
</svg>