<?xml version="1.0" encoding="UTF-8"?>
<svg id="Camada_1" xmlns="http://www.w3.org/2000/svg" version="1.1" viewBox="0 0 882.7 923.9">
  <!-- Generator: Adobe Illustrator 29.1.0, SVG Export Plug-In . SVG Version: 2.1.0 Build 142)  -->
  <defs>
    <style>
      .st0 {
        fill: none;
        stroke: #112548;
        stroke-miterlimit: 10;
        stroke-width: 8px;
      }
    </style>
  </defs>
  <path class="st0" d="M462.7,201.7c45.7-41.9,89.3-91.8,133.1-135.8h0c14.1-14.1,4.1-38.3-15.9-38.3h-14.3c-6,0-11.8,2.4-16,6.7l-130,131.6c-2.2,2.2-4,4.9-5.1,7.9-9.1,26,23.9,50.2,48.2,28h0Z"/>
  <path class="st0" d="M318.9,618.8c20.2-14,12.6-31.6.7-47.3-50.6-67.1-65.7-135.2-13.9-209.2,11.9-17.1,31.3-27.2,24-50.6-.9-2.7-17.2-22.1-20.5-25.6-30.3-31.7-76.1-82.5-108.9-108.8-26.6-21.3-42-3.7-60.2,16.6-22.8,25.3-45,60.9-59.4,91.7-68.4,146.2-45.2,312,57.7,434.7l-104.5,105.1c-23.1,26.1,5.4,62.9,35.7,43.3,35.8-42.9,93.8-83.4,127-126.6,26.3-34.2-14.9-55-33.2-79.6-87.6-117.9-87-289,0-406.9,3.8-5.2,14.8-22.2,20.4-15.7l80.8,81c-45.6,67.2-60.7,146.6-28.8,223.1,10.6,25.4,49.2,98.4,83.3,74.7h0Z"/>
  <path class="st0" d="M849.5,89.1c21-24.4-3.5-56.8-33.6-43.8l-130.5,128.2c-24.4,31.7,3.8,43,20.3,64.3,103.6,133.5,106.8,311.7-2.3,442.8l-85.1-85.7c46.9-66.4,59-147.1,27.9-223.4-9.8-24-60.4-111.4-89.7-65.7-17.7,27.6,17.2,48.1,30,71.6,28.1,51.4,27.8,111.7-.2,163.1-8.5,15.7-33.5,37.6-35.3,51.9-.6,4.3,0,7.3,1.1,11.4,4.4,16.5,74.4,77.2,91.1,93.3,12.5,12.2,28.1,32.6,40.8,43.7,23.5,20.6,42.1-1.9,57.8-19.3,128.9-142.5,129-361.3,12.6-510.8-3.2-4.1-6-8.5-10.2-11.8v-5.1l105.2-105h0Z"/>
  <path class="st0" d="M525.4,387.5c-22.6-26.6-54.8-40.7-90-39.1-95.5,4.4-141.6,122.5-72.6,188.9,101.9,98.1,253.7-42.7,162.6-149.8h0Z"/>
  <path class="st0" d="M411.4,721.6c-14.7,13.8-30.1,33-44.7,47.5-27.2,27.1-54.6,54-81.7,81.4-17.6,17.7-5,47.9,20,47.9h0c7.5,0,14.6-3,19.9-8.3l134.1-134.7c3.3-3.3,5.8-7.3,7-11.8,9.8-36.3-24.6-50.4-54.7-22h0Z"/>
</svg>