<?xml version="1.0" encoding="UTF-8"?>
<svg id="Camada_1" xmlns="http://www.w3.org/2000/svg" version="1.1" viewBox="0 0 1000 1000">
  <!-- Generator: Adobe Illustrator 29.1.0, SVG Export Plug-In . SVG Version: 2.1.0 Build 142)  -->
  <defs>
    <style>
      .st0 {
        isolation: isolate;
      }

      .st1 {
        fill: #fdb817;
      }
    </style>
  </defs>
  <g>
    <path class="st1" d="M500.6,253.2c26.6-24.4,52-53.5,77.6-79.2h0c8.2-8.2,2.4-22.3-9.2-22.3h-8.4c-3.5,0-6.9,1.4-9.3,3.9l-75.8,76.7c-1.3,1.3-2.4,2.9-3,4.6-5.3,15.2,13.9,29.3,28.1,16.3h0Z"/>
    <path class="st1" d="M416.8,496.3c11.8-8.2,7.3-18.4.4-27.6-29.5-39.1-38.3-78.8-8.1-121.9,7-9.9,18.2-15.9,14-29.5-.5-1.6-10-12.9-12-14.9-17.7-18.5-44.3-48.1-63.5-63.4-15.5-12.4-24.5-2.1-35.1,9.7-13.3,14.7-26.2,35.5-34.6,53.4-39.9,85.2-26.3,181.9,33.6,253.4l-60.9,61.2c-13.4,15.2,3.2,36.7,20.8,25.3,20.8-25,54.7-48.6,74-73.8,15.3-19.9-8.7-32-19.3-46.4-51.1-68.7-50.7-168.4,0-237.2,2.2-3,8.6-13,11.9-9.1l47.1,47.2c-26.6,39.2-35.4,85.5-16.8,130,6.2,14.8,28.7,57.3,48.6,43.6h0Z"/>
    <path class="st1" d="M726.1,187.6c12.3-14.2-2-33.1-19.6-25.5l-76,74.7c-14.2,18.5,2.2,25,11.8,37.5,60.4,77.8,62.3,181.6-1.4,258.1l-49.6-50c27.3-38.7,34.4-85.8,16.3-130.2-5.7-14-35.2-64.9-52.3-38.3-10.3,16.1,10,28,17.5,41.7,16.4,30,16.2,65.1,0,95.1-5,9.1-19.5,21.9-20.6,30.3-.3,2.5,0,4.2.7,6.6,2.6,9.6,43.4,45,53.1,54.4,7.3,7.1,16.4,19,23.8,25.5,13.7,12,24.5-1.1,33.7-11.3,75.1-83.1,75.2-210.6,7.3-297.7-1.9-2.4-3.5-4.9-5.9-6.9v-3l61.3-61.2h0Z"/>
    <path class="st1" d="M537.2,361.5c-13.2-15.5-31.9-23.7-52.5-22.8-55.7,2.5-82.5,71.4-42.3,110.1,59.4,57.2,147.9-24.9,94.8-87.3h0Z"/>
    <path class="st1" d="M470.7,556.2c-8.5,8-17.6,19.2-26,27.7-15.8,15.8-31.8,31.5-47.6,47.4-10.2,10.3-2.9,27.9,11.7,27.9h0c4.4,0,8.5-1.7,11.6-4.8l78.2-78.5c1.9-1.9,3.4-4.3,4.1-6.9,5.7-21.2-14.3-29.3-31.9-12.8h0Z"/>
  </g>
  <g class="st0">
    <g class="st0">
      <path class="st1" d="M150.4,834.2l-44.3-68.9v68.9h-19.6v-99.2h20.5l45,70.5v-70.5h19.6v99.2h-21.2Z"/>
      <path class="st1" d="M189.8,784.6c0-31.8,18.5-51.2,48.1-51.2s48.1,19.4,48.1,51.2-18.5,51.5-48.1,51.5-48.1-19.4-48.1-51.5ZM266.2,784.6c0-21.9-9.7-35.2-28.3-35.2s-28.3,13.2-28.3,35.2,9.7,35,28.3,35,28.3-13.1,28.3-35Z"/>
      <path class="st1" d="M360.2,834.2l-19.1-37.5h-17.2v37.5h-19.6v-99.2h35.9c23.1,0,38,10.3,38,30.2s-7.1,23.2-18.5,27.7l21,41.3h-20.5ZM339.3,781.1c11.6,0,19-5.3,19-15.9s-6.9-14.6-19.1-14.6h-15.3v30.5h15.5Z"/>
    </g>
    <g class="st0">
      <path class="st1" d="M395.6,834.2v-99.2h59.2v15.7h-39.6v26.3h36.8v15.7h-36.8v41.3h-19.6,0Z"/>
    </g>
    <g class="st0">
      <path class="st1" d="M467,784.6c0-31.8,18.5-51.2,48.1-51.2s48.1,19.4,48.1,51.2-18.5,51.5-48.1,51.5-48.1-19.4-48.1-51.5ZM543.4,784.6c0-21.9-9.7-35.2-28.3-35.2s-28.3,13.2-28.3,35.2,9.7,35,28.3,35,28.3-13.1,28.3-35Z"/>
      <path class="st1" d="M581.5,834.2v-99.2h19.6v83.1h41.9v16h-61.5Z"/>
      <path class="st1" d="M717.1,834.2l-32.1-41.6-9.3,9.9v31.8h-19.6v-99.2h19.6v42.7l39.6-42.7h23.4l-40.6,43.4,43.3,55.8h-24.3,0Z"/>
      <path class="st1" d="M854.7,834.2l-8.8-24.9h-39.4l-8.5,24.9h-20.5l36.3-99.2h25.3l36.2,99.2h-20.6ZM826.2,751.8l-14.9,41.9h29.6l-14.7-41.9h0Z"/>
      <path class="st1" d="M889.3,834.2v-99.2h19.6v99.2h-19.6Z"/>
    </g>
  </g>
</svg>