<?xml version="1.0" encoding="UTF-8"?>
<svg id="Camada_1" xmlns="http://www.w3.org/2000/svg" version="1.1" viewBox="0 0 899.6 212">
  <!-- Generator: Adobe Illustrator 29.1.0, SVG Export Plug-In . SVG Version: 2.1.0 Build 142)  -->
  <defs>
    <style>
      .st0 {
        isolation: isolate;
      }

      .st1 {
        fill: #fdb817;
      }
    </style>
  </defs>
  <g>
    <path class="st1" d="M106.4,42.4c11.1-10.2,21.7-22.4,32.4-33.1h0c3.4-3.4,1-9.3-3.9-9.3h-3.5c-1.5,0-2.9.6-3.9,1.6l-31.7,32c-.5.5-1,1.2-1.2,1.9-2.2,6.3,5.8,12.2,11.7,6.8Z"/>
    <path class="st1" d="M71.4,143.9c4.9-3.4,3.1-7.7.2-11.5-12.3-16.3-16-32.9-3.4-50.9,2.9-4.2,7.6-6.6,5.8-12.3-.2-.7-4.2-5.4-5-6.2-7.4-7.7-18.5-20.1-26.5-26.5-6.5-5.2-10.2-.9-14.7,4-5.5,6.2-10.9,14.8-14.5,22.3C-3.2,98.4,2.4,138.8,27.5,168.7l-25.4,25.6c-5.6,6.4,1.3,15.3,8.7,10.6,8.7-10.4,22.8-20.3,30.9-30.8,6.4-8.3-3.6-13.4-8.1-19.4-21.3-28.7-21.2-70.3,0-99.1.9-1.3,3.6-5.4,5-3.8l19.7,19.7c-11.1,16.4-14.8,35.7-7,54.3,2.6,6.2,12,24,20.3,18.2h0Z"/>
    <path class="st1" d="M200.6,15c5.1-5.9-.8-13.8-8.2-10.7l-31.8,31.2c-5.9,7.7.9,10.5,4.9,15.7,25.2,32.5,26,75.9-.6,107.8l-20.7-20.9c11.4-16.2,14.4-35.8,6.8-54.4-2.4-5.8-14.7-27.1-21.8-16-4.3,6.7,4.2,11.7,7.3,17.4,6.8,12.5,6.8,27.2,0,39.7-2.1,3.8-8.1,9.1-8.6,12.7-.1,1.1,0,1.8.3,2.8,1.1,4,18.1,18.8,22.2,22.7,3.1,3,6.8,7.9,9.9,10.6,5.7,5,10.2-.5,14.1-4.7,31.4-34.7,31.4-87.9,3.1-124.3-.8-1-1.5-2.1-2.5-2.9v-1.2l25.6-25.5h0Z"/>
    <path class="st1" d="M121.7,87.6c-5.5-6.5-13.3-9.9-21.9-9.5-23.2,1.1-34.5,29.8-17.7,46,24.8,23.9,61.8-10.4,39.6-36.5h0Z"/>
    <path class="st1" d="M94,168.9c-3.6,3.4-7.3,8-10.9,11.6-6.6,6.6-13.3,13.2-19.9,19.8-4.3,4.3-1.2,11.7,4.9,11.7h0c1.8,0,3.6-.7,4.8-2l32.6-32.8c.8-.8,1.4-1.8,1.7-2.9,2.4-8.8-6-12.3-13.3-5.4h0Z"/>
  </g>
  <g class="st0">
    <g class="st0">
      <path class="st1" d="M298.9,159.8l-35.1-54.5v54.5h-15.5v-78.6h16.2l35.7,55.8v-55.8h15.5v78.6h-16.8Z"/>
      <path class="st1" d="M330.1,120.6c0-25.2,14.7-40.6,38.1-40.6s38.1,15.4,38.1,40.6-14.7,40.8-38.1,40.8-38.1-15.4-38.1-40.8ZM390.6,120.6c0-17.4-7.7-27.8-22.4-27.8s-22.4,10.5-22.4,27.8,7.7,27.7,22.4,27.7,22.4-10.4,22.4-27.7Z"/>
      <path class="st1" d="M465.1,159.8l-15.1-29.7h-13.6v29.7h-15.5v-78.6h28.4c18.3,0,30.1,8.2,30.1,23.9s-5.6,18.4-14.7,21.9l16.7,32.8h-16.2ZM448.5,117.8c9.2,0,15-4.2,15-12.6s-5.5-11.5-15.1-11.5h-12.1v24.1h12.2Z"/>
    </g>
    <g class="st0">
      <path class="st1" d="M493.1,159.8v-78.6h46.9v12.5h-31.4v20.9h29.1v12.5h-29.1v32.8h-15.5,0Z"/>
    </g>
    <g class="st0">
      <path class="st1" d="M549.7,120.6c0-25.2,14.7-40.6,38.1-40.6s38.1,15.4,38.1,40.6-14.7,40.8-38.1,40.8-38.1-15.4-38.1-40.8ZM610.2,120.6c0-17.4-7.7-27.8-22.4-27.8s-22.4,10.5-22.4,27.8,7.7,27.7,22.4,27.7,22.4-10.4,22.4-27.7Z"/>
      <path class="st1" d="M640.3,159.8v-78.6h15.5v65.8h33.2v12.7h-48.7Z"/>
      <path class="st1" d="M747.8,159.8l-25.4-33-7.3,7.8v25.2h-15.5v-78.6h15.5v33.8l31.3-33.8h18.5l-32.2,34.4,34.3,44.2h-19.2,0Z"/>
      <path class="st1" d="M856.8,159.8l-7-19.7h-31.2l-6.8,19.7h-16.2l28.8-78.6h20l28.7,78.6h-16.3ZM834.1,94.6l-11.8,33.2h23.4l-11.7-33.2h0Z"/>
      <path class="st1" d="M884.1,159.8v-78.6h15.5v78.6h-15.5Z"/>
    </g>
  </g>
</svg>