<?xml version="1.0" encoding="UTF-8"?>
<svg id="Camada_1" data-name="Camada 1" xmlns="http://www.w3.org/2000/svg" viewBox="0 0 159.22 198.31">
  <defs>
    <style>
      .cls-1 {
        isolation: isolate;
      }

      .cls-2 {
        fill: #112548;
      }

      .cls-3 {
        fill: #1b2746;
      }
    </style>
  </defs>
  <path class="cls-3" d="M83.7,33.33c8.75-8.01,17.09-17.58,25.46-25.99h0c2.7-2.71.79-7.33-3.04-7.33h-2.74c-1.15,0-2.25.46-3.06,1.28l-24.88,25.19c-.42.43-.78.93-.97,1.5-1.74,4.97,4.57,9.61,9.22,5.36,0,0,0,0,0,0Z"/>
  <path class="cls-2" d="M56.18,113.14c3.86-2.68,2.4-6.04.13-9.05-9.68-12.84-12.57-25.86-2.66-40.04,2.28-3.26,5.99-5.21,4.59-9.67-.17-.52-3.3-4.24-3.92-4.9-5.8-6.07-14.56-15.79-20.84-20.81-5.09-4.07-8.03-.7-11.53,3.19-4.35,4.84-8.61,11.65-11.37,17.55-13.09,27.97-8.65,59.71,11.04,83.18L1.61,152.68c-4.41,5,1.03,12.03,6.82,8.3,6.84-8.22,17.94-15.96,24.29-24.22,5.03-6.55-2.84-10.52-6.35-15.24-16.76-22.55-16.64-55.3,0-77.86.74-.99,2.82-4.26,3.9-3l15.45,15.49c-8.72,12.86-11.62,28.06-5.51,42.69,2.03,4.87,9.42,18.83,15.94,14.3h.02Z"/>
  <path class="cls-3" d="M157.71,11.78c4.03-4.67-.66-10.87-6.42-8.39l-24.97,24.53c-4.67,6.08.72,8.22,3.89,12.31,19.82,25.55,20.44,59.63-.45,84.74l-16.28-16.4c8.97-12.71,11.3-28.15,5.35-42.74-1.87-4.59-11.55-21.3-17.16-12.56-3.38,5.28,3.28,9.21,5.74,13.7,5.38,9.84,5.33,21.37-.03,31.21-1.63,3-6.4,7.19-6.75,9.94-.11.84,0,1.39.22,2.17.86,3.15,14.23,14.77,17.43,17.86,2.4,2.33,5.38,6.24,7.81,8.37,4.5,3.94,8.05-.37,11.06-3.7,24.66-27.27,24.68-69.13,2.4-97.74-.61-.79-1.15-1.62-1.95-2.25v-.97l20.13-20.08h0Z"/>
  <path class="cls-3" d="M95.69,68.87c-4.34-5.09-10.48-7.79-17.22-7.48-18.28.84-27.1,23.44-13.89,36.15,19.5,18.77,48.55-8.17,31.11-28.67Z"/>
  <path class="cls-3" d="M73.89,132.8c-2.8,2.63-5.77,6.32-8.55,9.09-5.2,5.19-10.45,10.34-15.63,15.57-3.36,3.39-.95,9.17,3.82,9.17h0c1.44,0,2.8-.57,3.81-1.58l25.66-25.77c.63-.63,1.11-1.4,1.35-2.26,1.88-6.95-4.7-9.63-10.46-4.22h0Z"/>
  <g class="cls-1">
    <g class="cls-1">
      <g class="cls-1">
        <path class="cls-2" d="M14.69,197.96l-8.31-12.93v12.93h-3.67v-18.62h3.84l8.45,13.23v-13.23h3.67v18.62h-3.98Z"/>
        <path class="cls-2" d="M22.09,188.65c0-5.97,3.48-9.61,9.03-9.61s9.03,3.65,9.03,9.61-3.48,9.67-9.03,9.67-9.03-3.65-9.03-9.67ZM36.43,188.65c0-4.12-1.82-6.6-5.3-6.6s-5.3,2.49-5.3,6.6,1.82,6.57,5.3,6.57,5.3-2.46,5.3-6.57Z"/>
        <path class="cls-2" d="M54.08,197.96l-3.59-7.04h-3.23v7.04h-3.67v-18.62h6.74c4.34,0,7.13,1.93,7.13,5.66,0,2.51-1.33,4.36-3.48,5.19l3.95,7.76h-3.84ZM50.16,187.98c2.18,0,3.56-.99,3.56-2.98,0-1.79-1.3-2.73-3.59-2.73h-2.87v5.72h2.9Z"/>
        <path class="cls-2" d="M60.74,197.96v-18.62h11.1v2.96h-7.43v4.94h6.9v2.96h-6.9v7.76h-3.67Z"/>
        <path class="cls-2" d="M74.14,188.65c0-5.97,3.48-9.61,9.03-9.61s9.03,3.65,9.03,9.61-3.48,9.67-9.03,9.67-9.03-3.65-9.03-9.67ZM88.47,188.65c0-4.12-1.82-6.6-5.3-6.6s-5.3,2.49-5.3,6.6,1.82,6.57,5.3,6.57,5.3-2.46,5.3-6.57Z"/>
        <path class="cls-2" d="M95.63,197.96v-18.62h3.67v15.6h7.87v3.01h-11.54Z"/>
        <path class="cls-2" d="M121.09,197.96l-6.02-7.82-1.74,1.85v5.97h-3.67v-18.62h3.67v8.01l7.43-8.01h4.39l-7.62,8.15,8.12,10.47h-4.56Z"/>
        <path class="cls-2" d="M146.92,197.96l-1.66-4.67h-7.4l-1.6,4.67h-3.84l6.82-18.62h4.75l6.79,18.62h-3.87ZM141.56,182.49l-2.79,7.87h5.55l-2.76-7.87Z"/>
        <path class="cls-2" d="M153.42,197.96v-18.62h3.67v18.62h-3.67Z"/>
      </g>
    </g>
  </g>
</svg>