<?xml version="1.0" encoding="UTF-8"?>
<svg id="Camada_1" xmlns="http://www.w3.org/2000/svg" version="1.1" viewBox="0 0 899.6 212">
  <!-- Generator: Adobe Illustrator 29.1.0, SVG Export Plug-In . SVG Version: 2.1.0 Build 142)  -->
  <defs>
    <style>
      .st0 {
        isolation: isolate;
      }

      .st1 {
        fill: none;
        stroke: #112548;
        stroke-miterlimit: 10;
        stroke-width: 3px;
      }
    </style>
  </defs>
  <g>
    <path class="st1" d="M140.4,49.2c10-9.2,19.6-20.2,29.2-29.8h0c3.1-3.1.9-8.4-3.5-8.4h-3.2c-1.4,0-2.6.5-3.5,1.4l-28.6,28.8c-.5.5-.9,1.1-1.1,1.7-2,5.7,5.2,11,10.5,6.1h0Z"/>
    <path class="st1" d="M108.9,140.6c4.4-3.1,2.8-6.9.2-10.4-11.1-14.7-14.4-29.6-3.1-45.9,2.6-3.8,6.8-5.9,5.2-11.1-.2-.6-3.8-4.9-4.5-5.6-6.7-6.9-16.7-18.1-23.9-23.9-5.9-4.7-9.2-.8-13.2,3.6-5,5.6-9.8,13.3-13.1,20.1-14.9,32.1-9.8,68.5,12.8,95.4l-22.9,23.1c-5,5.8,1.2,13.8,7.8,9.6,7.8-9.4,20.5-18.3,27.8-27.7,5.8-7.5-3.2-12.1-7.3-17.5-19.2-25.9-19.1-63.3,0-89.3.8-1.2,3.2-4.9,4.5-3.4l17.7,17.7c-10,14.8-13.3,32.2-6.3,48.9,2.3,5.6,10.8,21.6,18.3,16.4h-.2Z"/>
    <path class="st1" d="M225.3,24.5c4.6-5.3-.7-12.4-7.4-9.6l-28.7,28.1c-5.3,6.9.8,9.5,4.4,14.1,22.7,29.3,23.4,68.4-.5,97.1l-18.6-18.8c10.3-14.6,13-32.3,6.1-49-2.2-5.2-13.2-24.4-19.6-14.4-3.9,6,3.8,10.5,6.6,15.7,6.1,11.3,6.1,24.5,0,35.8-1.9,3.4-7.3,8.2-7.7,11.4,0,1,0,1.6.3,2.5,1,3.6,16.3,16.9,20,20.5,2.8,2.7,6.1,7.1,8.9,9.6,5.1,4.5,9.2-.5,12.7-4.2,28.3-31.3,28.3-79.2,2.8-112-.7-.9-1.4-1.9-2.3-2.6v-1.1l23.1-23h0Z"/>
    <path class="st1" d="M154.2,89.9c-5-5.9-12-8.9-19.7-8.6-20.9,1-31.1,26.8-15.9,41.4,22.3,21.5,55.7-9.4,35.7-32.9h0Z"/>
    <path class="st1" d="M129.2,163.2c-3.2,3.1-6.6,7.2-9.8,10.5-5.9,5.9-12,11.9-17.9,17.8-3.9,3.9-1.1,10.5,4.4,10.5h0c1.6,0,3.2-.6,4.3-1.8l29.4-29.6c.7-.7,1.3-1.6,1.5-2.6,2.2-7.9-5.4-11.1-12-4.9h0Z"/>
  </g>
  <g class="st0">
    <g class="st0">
      <path class="st1" d="M313.9,155l-31.6-49.1v49.1h-14v-70.8h14.6l32.2,50.3v-50.3h14v70.8h-15.1Z"/>
      <path class="st1" d="M342,119.7c0-22.7,13.2-36.6,34.3-36.6s34.3,13.9,34.3,36.6-13.2,36.8-34.3,36.8-34.3-13.9-34.3-36.8ZM396.5,119.7c0-15.7-6.9-25-20.2-25s-20.2,9.5-20.2,25,6.9,25,20.2,25,20.2-9.4,20.2-25Z"/>
      <path class="st1" d="M463.6,155l-13.6-26.8h-12.3v26.8h-14v-70.8h25.6c16.5,0,27.1,7.4,27.1,21.5s-5,16.6-13.2,19.7l15,29.6h-14.7ZM448.6,117.1c8.3,0,13.5-3.8,13.5-11.4s-5-10.4-13.6-10.4h-10.9v21.7h11Z"/>
    </g>
    <g class="st0">
      <path class="st1" d="M488.8,155v-70.8h42.3v11.3h-28.3v18.8h26.2v11.3h-26.2v29.6h-14Z"/>
    </g>
    <g class="st0">
      <path class="st1" d="M539.8,119.7c0-22.7,13.2-36.6,34.3-36.6s34.3,13.9,34.3,36.6-13.2,36.8-34.3,36.8-34.3-13.9-34.3-36.8ZM594.3,119.7c0-15.7-6.9-25-20.2-25s-20.2,9.5-20.2,25,6.9,25,20.2,25,20.2-9.4,20.2-25Z"/>
      <path class="st1" d="M621.4,155v-70.8h14v59.3h29.9v11.4h-43.9Z"/>
      <path class="st1" d="M718.3,155l-22.9-29.7-6.6,7v22.7h-14v-70.8h14v30.5l28.2-30.5h16.7l-29,31,30.9,39.8h-17.3,0Z"/>
      <path class="st1" d="M816.5,155l-6.3-17.7h-28.1l-6.1,17.7h-14.6l25.9-70.8h18l25.9,70.8h-14.7ZM796,96.2l-10.6,29.9h21.1l-10.5-29.9h0Z"/>
      <path class="st1" d="M841.1,155v-70.8h14v70.8h-14Z"/>
    </g>
  </g>
</svg>