<?xml version="1.0" encoding="UTF-8"?>
<svg id="Camada_1" data-name="Camada 1" xmlns="http://www.w3.org/2000/svg" viewBox="0 0 899.63 211.99">
  <defs>
    <style>
      .cls-1 {
        fill: #fff;
      }

      .cls-2 {
        isolation: isolate;
      }
    </style>
  </defs>
  <g>
    <path class="cls-1" d="M106.45,42.39c11.13-10.19,21.74-22.36,32.4-33.07h0c3.44-3.44,1-9.32-3.86-9.32h-3.49c-1.46,0-2.86.58-3.89,1.62l-31.65,32.04c-.54.55-.98,1.19-1.24,1.92-2.21,6.33,5.81,12.23,11.73,6.81Z"/>
    <path class="cls-1" d="M71.45,143.93c4.92-3.41,3.06-7.68.16-11.52-12.32-16.34-16-32.9-3.38-50.93,2.91-4.16,7.62-6.63,5.84-12.31-.21-.67-4.2-5.39-4.99-6.22-7.38-7.71-18.52-20.09-26.52-26.48-6.48-5.18-10.22-.89-14.67,4.05-5.54,6.16-10.95,14.81-14.46,22.32C-3.22,98.42,2.42,138.8,27.48,168.66l-25.43,25.57c-5.61,6.36,1.32,15.31,8.68,10.55,8.71-10.45,22.83-20.31,30.9-30.82,6.4-8.33-3.62-13.38-8.08-19.39-21.32-28.69-21.18-70.35,0-99.05.94-1.27,3.6-5.41,4.97-3.82l19.66,19.71c-11.09,16.36-14.78,35.69-7.01,54.32,2.58,6.19,11.99,23.95,20.28,18.19h0Z"/>
    <path class="cls-1" d="M200.62,14.98c5.12-5.95-.84-13.83-8.17-10.66l-31.76,31.21c-5.94,7.73.92,10.46,4.95,15.65,25.22,32.5,26,75.87-.57,107.8l-20.71-20.87c11.41-16.17,14.37-35.82,6.8-54.37-2.38-5.84-14.7-27.11-21.84-15.99-4.31,6.71,4.18,11.71,7.3,17.43,6.84,12.52,6.78,27.18-.04,39.71-2.08,3.82-8.15,9.14-8.6,12.65-.14,1.06,0,1.77.28,2.77,1.08,4.01,18.11,18.79,22.17,22.72,3.05,2.96,6.84,7.94,9.93,10.65,5.73,5.01,10.24-.47,14.07-4.7,31.38-34.7,31.4-87.95,3.06-124.34-.78-1-1.47-2.06-2.48-2.86v-1.24l25.62-25.55h-.01Z"/>
    <path class="cls-1" d="M121.72,87.62c-5.51-6.48-13.33-9.91-21.91-9.51-23.25,1.06-34.48,29.82-17.67,45.98,24.81,23.87,61.77-10.39,39.59-36.47h0Z"/>
    <path class="cls-1" d="M93.97,168.95c-3.57,3.36-7.34,8.04-10.88,11.57-6.61,6.6-13.3,13.16-19.89,19.81-4.28,4.32-1.21,11.66,4.87,11.66h0c1.82,0,3.57-.73,4.85-2.02l32.64-32.78c.8-.8,1.42-1.78,1.71-2.87,2.39-8.84-5.98-12.26-13.31-5.37h0Z"/>
  </g>
  <g class="cls-2">
    <g class="cls-2">
      <path class="cls-1" d="M298.88,159.84l-35.08-54.54v54.54h-15.5v-78.55h16.2l35.66,55.83v-55.83h15.5v78.55h-16.78Z"/>
      <path class="cls-1" d="M330.11,120.56c0-25.17,14.68-40.56,38.11-40.56s38.11,15.38,38.11,40.56-14.68,40.79-38.11,40.79-38.11-15.38-38.11-40.79ZM390.6,120.56c0-17.37-7.69-27.85-22.38-27.85s-22.38,10.49-22.38,27.85,7.69,27.74,22.38,27.74,22.38-10.37,22.38-27.74Z"/>
      <path class="cls-1" d="M465.06,159.84l-15.15-29.72h-13.64v29.72h-15.5v-78.55h28.44c18.3,0,30.07,8.16,30.07,23.89,0,10.61-5.59,18.41-14.69,21.91l16.67,32.75h-16.2ZM448.51,117.77c9.21,0,15.03-4.2,15.03-12.59,0-7.58-5.48-11.54-15.15-11.54h-12.12v24.12h12.24Z"/>
    </g>
    <g class="cls-2">
      <path class="cls-1" d="M493.15,159.84v-78.55h46.85v12.47h-31.35v20.86h29.14v12.47h-29.14v32.75h-15.5Z"/>
    </g>
    <g class="cls-2">
      <path class="cls-1" d="M549.67,120.56c0-25.17,14.68-40.56,38.11-40.56s38.11,15.38,38.11,40.56-14.69,40.79-38.11,40.79-38.11-15.38-38.11-40.79ZM610.15,120.56c0-17.37-7.69-27.85-22.38-27.85s-22.38,10.49-22.38,27.85,7.69,27.74,22.38,27.74,22.38-10.37,22.38-27.74Z"/>
      <path class="cls-1" d="M640.34,159.84v-78.55h15.5v65.85h33.22v12.7h-48.72Z"/>
      <path class="cls-1" d="M747.79,159.84l-25.41-32.98-7.34,7.81v25.17h-15.5v-78.55h15.5v33.8l31.35-33.8h18.53l-32.17,34.38,34.26,44.17h-19.23Z"/>
      <path class="cls-1" d="M856.75,159.84l-6.99-19.7h-31.23l-6.76,19.7h-16.2l28.79-78.55h20.05l28.67,78.55h-16.32ZM834.14,94.57l-11.77,33.21h23.43l-11.65-33.21Z"/>
      <path class="cls-1" d="M884.13,159.84v-78.55h15.5v78.55h-15.5Z"/>
    </g>
  </g>
</svg>