<?xml version="1.0" encoding="UTF-8"?>
<svg id="Camada_1" data-name="Camada 1" xmlns="http://www.w3.org/2000/svg" xmlns:xlink="http://www.w3.org/1999/xlink" viewBox="0 0 159.78 196.29">
  <defs>
    <style>
      .cls-1 {
        fill: url(#Gradiente_sem_nome_5);
      }

      .cls-2 {
        fill: url(#Gradiente_sem_nome_2);
      }

      .cls-3 {
        fill: url(#Gradiente_sem_nome);
      }

      .cls-4 {
        isolation: isolate;
      }

      .cls-5 {
        fill: #112548;
      }

      .cls-6 {
        fill: url(#Gradiente_sem_nome_4);
      }

      .cls-7 {
        fill: url(#Gradiente_sem_nome_3);
      }
    </style>
    <linearGradient id="Gradiente_sem_nome" data-name="Gradiente sem nome" x1="74.43" y1="-677.56" x2="110.81" y2="-677.56" gradientTransform="translate(0 -660) scale(1 -1)" gradientUnits="userSpaceOnUse">
      <stop offset=".02" stop-color="#0091ae"/>
      <stop offset=".22" stop-color="#008dab"/>
      <stop offset=".39" stop-color="#0284a1"/>
      <stop offset=".53" stop-color="#047392"/>
      <stop offset=".67" stop-color="#085c7c"/>
      <stop offset=".8" stop-color="#0c3e60"/>
      <stop offset=".89" stop-color="#112548"/>
    </linearGradient>
    <linearGradient id="Gradiente_sem_nome_2" data-name="Gradiente sem nome 2" x1="-.93" y1="-754.76" x2="57.84" y2="-754.76" gradientTransform="translate(0 -660) scale(1 -1)" gradientUnits="userSpaceOnUse">
      <stop offset="0" stop-color="#112548"/>
      <stop offset=".44" stop-color="#102649"/>
      <stop offset=".6" stop-color="#0f2d50"/>
      <stop offset=".72" stop-color="#0d395b"/>
      <stop offset=".81" stop-color="#0b4a6b"/>
      <stop offset=".89" stop-color="#076080"/>
      <stop offset=".96" stop-color="#037a99"/>
      <stop offset="1" stop-color="#0091ae"/>
    </linearGradient>
    <linearGradient id="Gradiente_sem_nome_3" data-name="Gradiente sem nome 3" x1="100.93" y1="-730.7" x2="159.78" y2="-730.7" gradientTransform="translate(0 -660) scale(1 -1)" gradientUnits="userSpaceOnUse">
      <stop offset="0" stop-color="#0091ae"/>
      <stop offset="0" stop-color="#0090ad"/>
      <stop offset=".16" stop-color="#066989"/>
      <stop offset=".31" stop-color="#0a4b6c"/>
      <stop offset=".46" stop-color="#0e3658"/>
      <stop offset=".6" stop-color="#10294c"/>
      <stop offset=".73" stop-color="#112548"/>
    </linearGradient>
    <linearGradient id="Gradiente_sem_nome_4" data-name="Gradiente sem nome 4" x1="58.45" y1="-742.92" x2="101.41" y2="-742.92" gradientTransform="translate(0 -660) scale(1 -1)" gradientUnits="userSpaceOnUse">
      <stop offset="0" stop-color="#112548"/>
      <stop offset=".32" stop-color="#0a4c6d"/>
      <stop offset=".78" stop-color="#037d9b"/>
      <stop offset="1" stop-color="#0091ae"/>
    </linearGradient>
    <linearGradient id="Gradiente_sem_nome_5" data-name="Gradiente sem nome 5" x1="48.31" y1="-808.82" x2="84.97" y2="-808.82" gradientTransform="translate(0 -660) scale(1 -1)" gradientUnits="userSpaceOnUse">
      <stop offset="0" stop-color="#112548"/>
      <stop offset=".3" stop-color="#0a4f70"/>
      <stop offset=".6" stop-color="#047391"/>
      <stop offset=".84" stop-color="#0189a6"/>
      <stop offset="1" stop-color="#0091ae"/>
    </linearGradient>
  </defs>
  <path class="cls-3" d="M84,33.44c8.78-8.04,17.15-17.64,25.55-26.08h0c2.71-2.72.79-7.36-3.05-7.36h-2.75c-1.15,0-2.26.46-3.07,1.28l-24.97,25.28c-.42.43-.78.94-.98,1.51-1.75,4.99,4.59,9.65,9.25,5.38h.02Z"/>
  <path class="cls-2" d="M56.38,113.54c3.88-2.69,2.41-6.06.13-9.09-9.72-12.88-12.62-25.96-2.67-40.18,2.29-3.28,6.01-5.23,4.61-9.71-.17-.52-3.31-4.25-3.94-4.91-5.82-6.09-14.61-15.84-20.92-20.89-5.11-4.08-8.06-.7-11.57,3.2-4.37,4.85-8.64,11.69-11.41,17.61-13.14,28.07-8.68,59.92,11.08,83.47L1.62,153.22c-4.43,5.02,1.04,12.08,6.85,8.33,6.87-8.25,18-16.02,24.38-24.31,5.05-6.57-2.85-10.56-6.37-15.29-16.82-22.63-16.7-55.49,0-78.14.74-1,2.83-4.27,3.92-3.01l15.51,15.55c-8.75,12.9-11.66,28.16-5.52,42.85,2.04,4.88,9.45,18.89,15.99,14.35h.02-.02Z"/>
  <path class="cls-7" d="M158.27,11.82c4.04-4.69-.66-10.91-6.44-8.42l-25.06,24.61c-4.69,6.1.72,8.25,3.91,12.35,19.89,25.64,20.51,59.85-.45,85.04l-16.34-16.46c9-12.76,11.34-28.26,5.37-42.9-1.87-4.61-11.59-21.38-17.23-12.61-3.39,5.3,3.3,9.24,5.76,13.75,5.4,9.88,5.35,21.45-.03,31.32-1.64,3.01-6.42,7.21-6.78,9.97-.11.84,0,1.39.22,2.18.86,3.16,14.29,14.82,17.49,17.93,2.41,2.34,5.4,6.26,7.83,8.4,4.52,3.96,8.08-.37,11.1-3.71,24.75-27.37,24.77-69.38,2.41-98.08-.61-.79-1.15-1.63-1.95-2.26v-.98l20.2-20.16h0v.03Z"/>
  <path class="cls-6" d="M96.03,69.12c-4.35-5.11-10.52-7.81-17.28-7.51-18.34.84-27.2,23.52-13.94,36.28,19.57,18.83,48.73-8.2,31.22-28.77Z"/>
  <path class="cls-1" d="M74.15,133.28c-2.81,2.64-5.79,6.34-8.58,9.13-5.22,5.21-10.49,10.38-15.69,15.63-3.37,3.4-.96,9.2,3.84,9.2h0c1.44,0,2.81-.57,3.83-1.59l25.75-25.86c.63-.63,1.11-1.4,1.35-2.27,1.88-6.98-4.72-9.67-10.5-4.23h0Z"/>
  <g class="cls-4">
    <g class="cls-4">
      <g class="cls-4">
        <g class="cls-4">
          <path class="cls-5" d="M16.56,195.94l-8.17-12.7v12.7h-3.61v-18.29h3.77l8.3,13v-13h3.61v18.29h-3.91Z"/>
          <path class="cls-5" d="M23.83,186.8c0-5.86,3.42-9.44,8.87-9.44s8.87,3.58,8.87,9.44-3.42,9.5-8.87,9.5-8.87-3.58-8.87-9.5ZM37.91,186.8c0-4.04-1.79-6.48-5.21-6.48s-5.21,2.44-5.21,6.48,1.79,6.46,5.21,6.46,5.21-2.42,5.21-6.46Z"/>
          <path class="cls-5" d="M55.24,195.94l-3.53-6.92h-3.17v6.92h-3.61v-18.29h6.62c4.26,0,7,1.9,7,5.56,0,2.47-1.3,4.29-3.42,5.1l3.88,7.62h-3.77ZM51.39,186.15c2.14,0,3.5-.98,3.5-2.93,0-1.76-1.28-2.69-3.53-2.69h-2.82v5.62h2.85Z"/>
        </g>
        <g class="cls-4">
          <path class="cls-5" d="M61.62,195.94v-18.29h10.91v2.9h-7.3v4.86h6.78v2.9h-6.78v7.62h-3.61Z"/>
        </g>
        <g class="cls-4">
          <path class="cls-5" d="M74.73,186.8c0-5.86,3.42-9.44,8.87-9.44s8.87,3.58,8.87,9.44-3.42,9.5-8.87,9.5-8.87-3.58-8.87-9.5ZM88.81,186.8c0-4.04-1.79-6.48-5.21-6.48s-5.21,2.44-5.21,6.48,1.79,6.46,5.21,6.46,5.21-2.42,5.21-6.46Z"/>
          <path class="cls-5" d="M95.83,195.94v-18.29h3.61v15.33h7.73v2.96h-11.34Z"/>
          <path class="cls-5" d="M120.85,195.94l-5.92-7.68-1.71,1.82v5.86h-3.61v-18.29h3.61v7.87l7.3-7.87h4.31l-7.49,8,7.98,10.28h-4.48Z"/>
          <path class="cls-5" d="M146.21,195.94l-1.63-4.58h-7.27l-1.57,4.58h-3.77l6.7-18.29h4.67l6.67,18.29h-3.8ZM140.95,180.75l-2.74,7.73h5.45l-2.71-7.73Z"/>
          <path class="cls-5" d="M152.59,195.94v-18.29h3.61v18.29h-3.61Z"/>
        </g>
      </g>
    </g>
  </g>
</svg>