<?xml version="1.0" encoding="UTF-8"?>
<svg id="Camada_1" data-name="Camada 1" xmlns="http://www.w3.org/2000/svg" xmlns:xlink="http://www.w3.org/1999/xlink" viewBox="0 0 882.72 923.89">
  <defs>
    <style>
      .cls-1 {
        fill: url(#Gradiente_sem_nome_74);
      }

      .cls-2 {
        fill: url(#Gradiente_sem_nome_72);
      }

      .cls-3 {
        fill: url(#Gradiente_sem_nome_73);
      }

      .cls-4 {
        fill: url(#Gradiente_sem_nome_68);
      }

      .cls-5 {
        fill: url(#Gradiente_sem_nome_65);
      }
    </style>
    <linearGradient id="Gradiente_sem_nome_74" data-name="Gradiente sem nome 74" x1="411.19" y1="97.01" x2="612.17" y2="97.01" gradientUnits="userSpaceOnUse">
      <stop offset=".02" stop-color="#0392af"/>
      <stop offset=".22" stop-color="#038eab"/>
      <stop offset=".39" stop-color="#0585a2"/>
      <stop offset=".53" stop-color="#097492"/>
      <stop offset=".67" stop-color="#0e5d7b"/>
      <stop offset=".8" stop-color="#153f5e"/>
      <stop offset=".89" stop-color="#1b2746"/>
    </linearGradient>
    <linearGradient id="Gradiente_sem_nome_68" data-name="Gradiente sem nome 68" x1="-5.23" y1="523.53" x2="319.45" y2="523.53" gradientUnits="userSpaceOnUse">
      <stop offset="0" stop-color="#1b2746"/>
      <stop offset=".44" stop-color="#1a2847"/>
      <stop offset=".6" stop-color="#192f4e"/>
      <stop offset=".72" stop-color="#163b5a"/>
      <stop offset=".81" stop-color="#124c6a"/>
      <stop offset=".89" stop-color="#0d6280"/>
      <stop offset=".96" stop-color="#077c9a"/>
      <stop offset="1" stop-color="#0392af"/>
    </linearGradient>
    <linearGradient id="Gradiente_sem_nome_72" data-name="Gradiente sem nome 72" x1="557.56" y1="390.64" x2="882.72" y2="390.64" gradientUnits="userSpaceOnUse">
      <stop offset="0" stop-color="#0392af"/>
      <stop offset=".15" stop-color="#0b6b89"/>
      <stop offset=".31" stop-color="#124d6c"/>
      <stop offset=".46" stop-color="#173856"/>
      <stop offset=".6" stop-color="#1a2b4a"/>
      <stop offset=".73" stop-color="#1b2746"/>
    </linearGradient>
    <linearGradient id="Gradiente_sem_nome_73" data-name="Gradiente sem nome 73" x1="322.84" y1="458.1" x2="560.16" y2="458.1" gradientUnits="userSpaceOnUse">
      <stop offset="0" stop-color="#1b2746"/>
      <stop offset=".32" stop-color="#124d6b"/>
      <stop offset=".77" stop-color="#077e9c"/>
      <stop offset="1" stop-color="#0392af"/>
    </linearGradient>
    <linearGradient id="Gradiente_sem_nome_65" data-name="Gradiente sem nome 65" x1="266.79" y1="822.12" x2="469.37" y2="822.12" gradientUnits="userSpaceOnUse">
      <stop offset="0" stop-color="#1b2746"/>
      <stop offset=".3" stop-color="#11506f"/>
      <stop offset=".6" stop-color="#097491"/>
      <stop offset=".84" stop-color="#048aa7"/>
      <stop offset="1" stop-color="#0392af"/>
    </linearGradient>
  </defs>
  <path class="cls-1" d="M463.95,184.75c48.49-44.41,94.74-97.43,141.19-144.12h0C620.14,25.64,609.52,0,588.32,0h-15.21c-6.37,0-12.47,2.55-16.94,7.08l-137.95,139.64c-2.35,2.38-4.28,5.2-5.39,8.35-9.65,27.58,25.34,53.3,51.12,29.69Z"/>
  <path class="cls-4" d="M311.41,627.29c21.43-14.87,13.32-33.48.71-50.2-53.71-71.2-69.72-143.39-14.75-221.98,12.67-18.11,33.2-28.88,25.45-53.65-.91-2.91-18.29-23.49-21.76-27.13-32.15-33.6-80.7-87.55-115.57-115.4-28.24-22.56-44.54-3.88-63.92,17.65-24.16,26.84-47.72,64.57-63.04,97.28C-14.05,428.95,10.57,604.91,119.77,735.06l-110.84,111.46c-24.46,27.72,5.74,66.74,37.84,45.99,37.95-45.55,99.49-88.53,134.69-134.32,27.9-36.29-15.76-58.32-35.2-84.49-92.93-125.05-92.29-306.59,0-431.68,4.08-5.53,15.67-23.6,21.64-16.64l85.68,85.9c-48.35,71.3-64.43,155.56-30.53,236.72,11.26,26.96,52.24,104.36,88.38,79.28Z"/>
  <path class="cls-2" d="M874.35,65.29c22.33-25.91-3.67-60.28-35.61-46.48l-138.43,136.01c-25.89,33.68,4,45.57,21.57,68.22,109.9,141.66,113.33,330.65-2.49,469.82l-90.27-90.94c49.71-70.45,62.62-156.1,29.65-236.97-10.38-25.45-64.06-118.14-95.17-69.67-18.77,29.24,18.21,51.05,31.82,75.96,29.8,54.55,29.54,118.47-.18,173.06-9.06,16.65-35.51,39.84-37.47,55.11-.59,4.61.04,7.71,1.22,12.05,4.72,17.46,78.95,81.89,96.62,99.03,13.31,12.92,29.81,34.63,43.26,46.41,24.95,21.85,44.65-2.05,61.32-20.48,136.75-151.23,136.85-383.31,13.32-541.92-3.39-4.35-6.39-8.97-10.81-12.48v-5.39s111.64-111.35,111.64-111.35Z"/>
  <path class="cls-3" d="M530.47,381.86c-24.01-28.24-58.09-43.18-95.5-41.47-101.34,4.63-150.26,129.95-77.03,200.41,108.12,104.03,269.19-45.28,172.53-158.95Z"/>
  <path class="cls-5" d="M409.56,736.31c-15.56,14.63-31.98,35.03-47.4,50.42-28.83,28.76-57.96,57.34-86.67,86.32-18.65,18.83-5.28,50.83,21.22,50.83h0c7.93,0,15.54-3.16,21.14-8.78l142.26-142.87c3.48-3.49,6.17-7.76,7.46-12.52,10.42-38.53-26.06-53.42-58-23.39Z"/>
</svg>